<svg version="1.2" xmlns="http://www.w3.org/2000/svg" viewBox="0 0 1264 565" width="1264" height="565">
	<title>Logo with main color</title>
	<defs>
		<clipPath clipPathUnits="userSpaceOnUse" id="cp1">
			<path d="m1100.18 88.21c-6.03 32.77 15.64 64.24 48.41 70.29 32.79 6.05 64.25-15.63 70.3-48.41 6.05-32.78-15.62-64.25-48.4-70.3q-5.57-1.01-11.03-1.01c-28.53 0-53.91 20.34-59.28 49.43z"/>
		</clipPath>
		<radialGradient id="g1" cx="1086" cy="98.4" r="138" gradientUnits="userSpaceOnUse">
			<stop offset="0" stop-color="#0aa4df"/>
			<stop offset=".1" stop-color="#0aa4df"/>
			<stop offset="1" stop-color="#194592"/>
		</radialGradient>
	</defs>
	<style>
		.s0 { fill: #194592 } 
		.s1 { fill: #f7931d } 
		.s2 { fill: #d92128 } 
		.s3 { fill: #0aa4df } 
		.s4 { fill: url(#g1) } 
	</style>
	<g id="Layer 1">
		<g id="&lt;Group&gt;">
			<path id="&lt;Path&gt;" class="s0" d="m1080.3 152.9l-5.2-9.3 166.7-92.5 5.2 9.3z"/>
			<g id="&lt;Group&gt;">
				<path id="&lt;Path&gt;" class="s0" d="m175.8 341.8v-34.9q0-3.2-3.7-3.2h-114.2q-3.7 0-3.7-3.5v-30.1q0-8.6 3.9-13.2 3.9-4.6 13.9-4.6h112.4q3.7 0 3.7-3.2v-34.9q0-3.1-3.7-3.1h-130.2q-11.5 0-21.4 2.6-9.8 2.7-17.1 8-7.2 5.2-11.3 13.2-4.1 7.9-4.1 18.7v181.8q0 3.2 3.7 3.2h46.5q3.7 0 3.7-3.2v-86.9q0-3.5 3.7-3.5h114.2q3.7 0 3.7-3.2z"/>
				<path id="&lt;Compound Path&gt;" fill-rule="evenodd" class="s0" d="m348.7 229.8l74.8 206.9q0 1.9-2.6 1.9h-48.7q-3.8 0-4.9-2.9l-19.7-54.9q-1.1-3.1-4.8-3.1h-87.4q-3.7 0-4.9 3.5l-19.7 54.2q-1.1 3.2-4.8 3.2h-48.3q-3 0-3-1.9l75.5-206.9q4.4-12.4 16.3-15.6 11.9-3.2 32.4-3.2 21.2 0 33.3 3.2 12.1 3.2 16.5 15.6zm-18.9 102.2q-0.1-0.3-0.2-0.7-0.2-0.3-0.2-0.9l-26-72.4q-1.2-3.5-1.9-4.6-0.7-1.1-2.6-1.1-1.9 0-4.1 5.7l-26 72.4q0 0.6-0.2 0.9-0.2 0.4-0.2 0.7 0 2.2 3 2.2h55.4q3 0 3-2.2z"/>
				<path id="&lt;Compound Path&gt;" fill-rule="evenodd" class="s0" d="m653.5 434.3q2 2.1 2 2.7 0 1.6-2.2 1.6h-51.3q-2.3 0-4.9-3.3-2.6-3.4-3.3-5.6l-23.1-55.5q-5.2-17.8-21.2-19.7h-45.3q-3.7 0-3.7 3.2v77.7q0 3.2-3.8 3.2h-46.5q-3.7 0-3.7-3.2v-221.2q0-3.1 3.7-3.2h138.4q10.4 0.1 20.4 3.5 10.1 3.5 19.8 12.1 16.7 14.9 17.8 45.1v7.3q0 27.9-7.8 40.6-5.2 6.3-10.8 11.6-5.6 5.2-15.2 9.6-0.4 0.4-1 1-0.5 0.6-0.5 1.6 0 0.6 0.3 1.3 8.6 9.5 12.1 16.6 3.6 7.2 6.5 14.8l20.5 53.6q0.7 2.6 2.8 4.6zm-59.3-155.7q0-4.4-0.6-8-0.5-3.7-2.4-6.9-6-10.4-14.1-11.4h-72.9q-3.7 0-3.7 3.2v51.7q0 3.2 4 3.2h67.3q5.3 0 11.6-4.5 5.2-3.8 8-11.1 2.8-7.3 2.8-16.2z"/>
				<path id="&lt;Compound Path&gt;" fill-rule="evenodd" class="s0" d="m868.2 435.7l-19.7-54.9q-1.1-3.1-4.8-3.1h-87.4q-3.7 0-4.8 3.5l-19.7 54.2q-1.2 3.2-4.9 3.2h-48.3q-3 0-3-1.9l75.5-206.9q4.5-12.4 16.4-15.6 11.8-3.2 32.3-3.2 21.2 0 33.3 3.2 12.1 3.2 16.5 15.6l74.8 206.9q0 1.9-2.6 1.9h-48.7q-3.8 0-4.9-2.9zm-37.5-103.7q0-0.3-0.2-0.7-0.2-0.3-0.2-0.9l-26-72.4q-1.1-3.5-1.9-4.6-0.7-1.1-2.6-1.1-1.8 0-4.1 5.7l-26 72.4q0 0.6-0.2 0.9-0.2 0.4-0.2 0.7 0 2.2 3 2.2h55.4q3 0 3-2.2z"/>
				<path id="&lt;Compound Path&gt;" fill-rule="evenodd" class="s0" d="m1154.4 358.8q0.6 4 0.6 6.8 0 15.2-3.4 28.6-3.3 13.3-11.7 23.1-8.4 9.9-22.1 15.6-13.8 5.7-35 5.7h-131.6q-3.8 0-3.7-3.2v-221.2q-0.1-3.2 3.7-3.2h133.9q13.3 0 24.7 3.9 11.3 3.8 19.7 10.9 8.4 7.1 13.2 17.3 4.8 10.2 4.8 22.8 0 17.2-3.3 27.2-3.4 10-7.6 15.2-4.3 5.3-7.7 7-3.3 1.8-3.3 2.7 0 1.6 5.8 6.7 5.7 5 12.8 11.7 2.6 2.9 4.6 6.7 2.1 3.8 3.6 7.7 1.4 4 2 8zm-153-59.8q0 3.1 3.7 3.1h64.3q14.9 0 21.2-5.5 6.3-5.6 6.3-20.2 0-13.6-8.1-18.9-8.2-5.2-19.4-5.2h-64.3q-3.7 0-3.7 3.2zm103.7 71.1q0-7.3-2-12.3-2.1-4.9-5.2-7.7-3.2-2.9-7.1-4-3.9-1.1-7.2-1.1h-78.5q-3.7 0-3.7 3.2v46q0 3.2 3.7 3.1h78.5q6.3 0.1 10.4-2.8 4.1-2.9 6.7-7.1 2.6-4.3 3.5-9.1 0.9-4.7 0.9-8.2z"/>
				<path id="&lt;Path&gt;" class="s0" d="m1233.4 235.1h-46.5q-3.7 0-3.7 3.2l-0.3 197.1q0 3.2 3.7 3.2h46.5q3.7 0 3.7-3.2l0.3-197.1q0-3.2-3.7-3.2z"/>
				<path id="&lt;Compound Path&gt;" fill-rule="evenodd" class="s0" d="m44.6 499.6q2.7 4.5 2.7 11.4 0 6.8-2.5 11.5-2.5 4.7-6.6 7.6-4.1 2.9-9.4 4.2-5.3 1.3-11 1.3h-1.7q-1.3 0-2.6-0.1-1.4 0-2.7-0.1-1.3-0.1-1.8-0.2v28.3h-9v-73.8q4.1-0.9 8.9-1.2 4.7-0.3 9.4-0.3 4.9 0 10.1 0.9 5.1 1 9.4 3.5 4.2 2.6 6.8 7zm-6.8 11.4q-0.1-4.3-1.7-7.3-1.7-2.9-4.5-4.6-2.7-1.8-6.2-2.5-3.5-0.8-6.9-0.8-2.8 0-5.4 0.1-2.6 0.1-4.1 0.5v30.9q0.5 0.2 1.7 0.3 1.2 0 2.5 0.1 1.3 0 2.5 0h1.7q3.7 0 7.3-0.7 3.6-0.7 6.6-2.5 2.9-1.8 4.7-5.1 1.7-3.3 1.8-8.4z"/>
				<path id="&lt;Path&gt;" class="s0" d="m99.8 529.1h29.5v-7.9h-29.5v-24.3h32.2v-7.9h-41.2v74.5h41.7v-7.9h-32.7z"/>
				<path id="&lt;Path&gt;" class="s0" d="m171.8 496.9h23.6v66.6h9v-66.6h23.6v-7.9h-56.2z"/>
				<path id="&lt;Compound Path&gt;" fill-rule="evenodd" class="s0" d="m301.6 534l18.8 29.5h-10.5l-20.9-32.2-10.6-1.6v33.8h-9v-73.8q4.1-0.7 9.5-1.1 5.3-0.4 9.8-0.4 5 0 9.4 1 4.5 1.1 8 3.5 3.3 2.5 5.4 6.4 2.1 4 2.1 9.6 0 8.7-4.9 14.1-4.9 5.5-12.3 7.3zm-2.4-13.8q4.9-3.6 4.8-11.2 0-5.8-3.9-9.5-4.1-3.7-11.2-3.7h-2.9q-1.5 0-2.9 0.1-1.4 0.1-2.7 0.2-1.2 0.1-2 0.3v27.4h8.5q7.4 0.1 12.3-3.6z"/>
				<path id="&lt;Compound Path&gt;" fill-rule="evenodd" class="s0" d="m416.2 510.4q1.9 7.1 1.9 15.8 0 18.6-8.1 28.6-8 9.9-23 9.9-7.9 0-13.7-2.7-5.7-2.8-9.6-7.8-3.8-5.1-5.7-12.2-1.8-7.1-1.8-15.8 0-18.6 8-28.5 8-10 22.8-10 8 0 13.9 2.8 5.8 2.8 9.7 7.8 3.8 5.1 5.6 12.1zm-7.6 15.8q0-6-1.3-11.6-1.2-5.6-3.9-9.8-2.6-4.2-6.7-6.7-4-2.5-9.7-2.5-9.9 0-15.6 7.5-5.7 7.5-5.7 23.1 0 6.2 1.3 11.7 1.2 5.6 3.8 9.8 2.6 4.2 6.7 6.7 4 2.5 9.5 2.5 10.1 0 15.8-7.5 5.8-7.5 5.8-23.2z"/>
				<path id="&lt;Path&gt;" class="s0" d="m503.8 555.9q-3.6 1-8.4 1-5.5 0-10.1-1.9-4.6-2-8-5.8-3.4-3.8-5.3-9.6-2-5.7-2-13.4 0-8.5 2.1-14.3 2-5.9 5.5-9.5 3.4-3.6 7.7-5.2 4.3-1.6 8.7-1.6 9.7 0 14.9 2.5l2.1-7.8q-2.9-1.2-7-1.9-4.1-0.7-10.6-0.7-6 0-11.9 2.2-5.8 2.1-10.5 6.7-4.8 4.6-7.6 11.9-2.9 7.3-2.9 17.7 0 10 2.6 17.3 2.6 7.3 7 12 4.5 4.7 10.4 7 6 2.2 12.8 2.2 5.6 0 10.6-0.9 5-1 8.2-3.4l-2.1-6.9q-2.5 1.5-6.2 2.4z"/>
				<path id="&lt;Path&gt;" class="s0" d="m601.1 521.4h-36.4v-32.4h-9v74.5h9v-34.2h36.4v34.2h8.9v-74.5h-8.9z"/>
				<path id="&lt;Path&gt;" class="s0" d="m667.7 529.1h29.6v-7.9h-29.6v-24.3h32.3v-7.9h-41.3v74.5h41.8v-7.9h-32.8z"/>
				<path id="&lt;Path&gt;" class="s0" d="m784.6 526.9l-3.4 8.5h-0.2l-3.5-8.3-23.8-38.1h-6.7v74.5h8.5v-50.1l-1.5-11.1h0.5l3.9 10.1 20.9 33.7h2.7l19.7-33.6 4.1-10.2h0.5l-1 11.2v50h8.9v-74.5h-7z"/>
				<path id="&lt;Path&gt;" class="s0" d="m865 563.4h9v-74.4h-9z"/>
				<path id="&lt;Path&gt;" class="s0" d="m964.9 555.9q-3.6 1-8.5 1-5.4 0-10-1.9-4.6-2-8-5.8-3.4-3.8-5.4-9.6-1.9-5.7-1.9-13.4 0-8.5 2.1-14.3 2-5.9 5.4-9.5 3.4-3.6 7.7-5.2 4.4-1.6 8.8-1.6 9.6 0 14.8 2.5l2.2-7.8q-2.9-1.2-7-1.9-4.1-0.7-10.6-0.7-6.1 0-11.9 2.2-5.9 2.1-10.6 6.7-4.7 4.6-7.6 11.9-2.8 7.3-2.8 17.7 0 10 2.6 17.3 2.6 7.3 7 12 4.4 4.7 10.4 7 5.9 2.2 12.8 2.2 5.6 0 10.6-0.9 4.9-1 8.2-3.4l-2.2-6.9q-2.5 1.5-6.1 2.4z"/>
				<path id="&lt;Compound Path&gt;" fill-rule="evenodd" class="s0" d="m1038.2 487.8l28.8 75.7h-9.5l-7.8-20.7h-27.8l-7.5 20.7h-9l28.7-75.7zm0.4 24.7l-2.7-11.3h-0.1l-2.7 11.5-8.2 22.5h22.1z"/>
				<path id="&lt;Path&gt;" class="s0" d="m1116.3 489h-8.9v74.5h44.8v-7.9h-35.9z"/>
				<path id="&lt;Path&gt;" class="s0" d="m1227.3 527.2q-4-2.8-8.8-4.9-4.8-2.1-8.8-4.3-4.1-2.2-6.8-5-2.7-2.7-2.7-6.9 0-4.2 3.6-7.4 3.5-3.1 10.7-3.1 6 0 10.9 1.1 4.8 1.1 7.3 2.3l2.7-7.9q-3.1-1.5-8.5-2.4-5.4-1-12-1-11.3 0-17.5 5.1-6.2 5.1-6.2 13.9 0 6.1 2.7 10.1 2.7 4 6.8 6.7 4 2.7 8.8 4.6 4.8 2 8.8 4.1 4.1 2.2 6.8 5 2.7 2.9 2.7 7.3 0 3.2-1.4 5.6-1.3 2.3-3.6 3.8-2.3 1.6-5.4 2.3-3.1 0.7-6.7 0.7-6.1 0-10.9-1.3-4.9-1.3-7.4-2.7l-3 7.9q2.9 1.5 8.2 2.7 5.3 1.2 13.4 1.2 6.1 0 10.8-1.5 4.8-1.4 8.2-4.2 3.3-2.8 5-6.6 1.8-3.8 1.8-8.6 0-5.9-2.7-9.8-2.7-3.9-6.8-6.8z"/>
			</g>
			<path id="&lt;Path&gt;" class="s1" d="m1218.7 54.1c-2.3 12.2 5.8 23.8 17.9 26.1 12.2 2.2 23.9-5.8 26.1-18 2.3-12.1-5.8-23.8-18-26.1-12.1-2.2-23.8 5.8-26 18z"/>
			<path id="&lt;Path&gt;" class="s2" d="m1055 140.1c-2.5 13.6 6.4 26.5 19.9 29 13.6 2.5 26.5-6.4 29-19.9 2.5-13.5-6.4-26.5-19.9-29-13.6-2.5-26.5 6.4-29 19.9z"/>
			<path id="&lt;Path&gt;" class="s0" d="m1200.7 191.8l-92.5-166.7 9.2-5.1 92.6 166.7z"/>
			<path id="&lt;Path&gt;" class="s3" d="m1090.9 18.5c-2.2 12.1 5.8 23.8 18 26 12.1 2.3 23.8-5.7 26.1-17.9 2.2-12.2-5.8-23.9-18-26.1-12.2-2.3-23.8 5.8-26.1 18z"/>
			<path id="&lt;Path&gt;" class="s0" d="m1175.9 191.3c0.7 16.7 14.7 29.6 31.3 29 16.7-0.7 29.6-14.7 29-31.3-0.7-16.7-14.7-29.6-31.3-29-16.7 0.6-29.6 14.7-29 31.3z"/>
			<g id="&lt;Clip Group&gt;" clip-path="url(#cp1)">
				<path id="&lt;Path&gt;" class="s4" d="m1277.7 135.9l-153.8 83.5-82.5-152 153.8-83.4z"/>
			</g>
		</g>
	</g>
</svg>